<svg xmlns="http://www.w3.org/2000/svg" viewBox="0 0 100 100" role="img" aria-label="Sani">
  <rect width="100" height="100" rx="24" fill="#08111f"/>
  <circle cx="50" cy="50" r="34" fill="none" stroke="#0c69e4" stroke-width="6"/>
  <path d="M32 34c6-7 15-10 24-10 10 0 18 3 25 9l-6 8c-6-5-12-7-19-7-6 0-10 1-13 4-2 2-3 4-3 6 0 2 1 4 3 5 2 2 6 3 13 4 9 1 16 4 21 8 5 4 7 9 7 16 0 7-3 13-9 17-6 5-14 7-24 7-13 0-24-4-31-11l6-8c7 6 15 9 25 9 6 0 11-1 14-4 3-2 4-5 4-8 0-3-1-5-3-7-2-2-7-3-15-5-10-1-17-4-22-8-4-4-6-9-6-15 0-6 3-11 9-16z" fill="#d6e6ff"/>
</svg>
